<svg width="24" height="26" viewBox="0 0 24 26" fill="none" xmlns="http://www.w3.org/2000/svg">
<path d="M2.94638 25.0219C2.51414 25.0219 2.01026 24.9049 1.54937 24.4631L1.36549 24.2864L1.3034 24.0404C1.01205 22.9132 1.51832 21.9723 1.92429 21.2177C2.35176 20.4225 2.50698 20.0595 2.31832 19.6559C2.16549 19.3311 2.00549 19.0087 1.84787 18.6887C1.29862 17.5855 0.73265 16.444 0.462799 15.1472C-0.186753 12.0213 0.54877 8.69232 2.47832 6.01053C4.46519 3.25232 7.50519 1.44695 10.8222 1.05531C13.9267 0.687544 17.1338 1.70725 19.6294 3.84934C22.1535 6.01769 23.6604 9.08635 23.7655 12.2672C23.8849 15.835 22.5141 19.2475 20.0043 21.6308C17.6855 23.8326 14.6789 24.8977 11.5482 24.6302C8.58937 24.3771 6.14877 24.4607 3.86579 24.8953L3.71534 24.9264C3.51713 24.9669 3.24967 25.0243 2.94638 25.0243V25.0219ZM12.0759 2.7771C11.7273 2.7771 11.3786 2.7962 11.0324 2.83919C8.21444 3.17351 5.62817 4.71142 3.93504 7.06128C2.29922 9.33471 1.67355 12.1478 2.22041 14.7819C2.4425 15.8517 2.93444 16.8428 3.45504 17.8887C3.6222 18.2231 3.78698 18.5574 3.94459 18.8941C4.53444 20.155 3.93981 21.2607 3.50519 22.0678C3.24728 22.5455 3.06817 22.9037 3.0228 23.2213C3.09444 23.2141 3.19713 23.195 3.3428 23.164L3.52668 23.1258C5.97444 22.6601 8.57026 22.5669 11.6986 22.8344C14.3088 23.0565 16.821 22.1658 18.7649 20.3222C20.9022 18.2923 22.07 15.3765 21.9673 12.3222C21.8789 9.64038 20.5989 7.04695 18.4544 5.20575C16.6228 3.63202 14.3446 2.77232 12.0735 2.77232L12.0759 2.7771Z" fill="white"/>
</svg>
