<svg width="21" height="20" viewBox="0 0 21 20" fill="none" xmlns="http://www.w3.org/2000/svg">
<path fill-rule="evenodd" clip-rule="evenodd" d="M16.6899 3.3302C18.3799 3.3302 19.7399 4.7002 19.7399 6.3902V9.8302C17.2799 11.2702 14.0299 12.1402 10.4899 12.1402C6.94988 12.1402 3.70988 11.2702 1.24988 9.8302V6.3802C1.24988 4.6902 2.61988 3.3302 4.30988 3.3302H16.6899Z" stroke="#A0ACBD" stroke-width="1.5" stroke-linecap="round" stroke-linejoin="round"/>
<path d="M13.9951 3.32579V2.95979C13.9951 1.73979 13.0051 0.749786 11.7851 0.749786H9.20512C7.98512 0.749786 6.99512 1.73979 6.99512 2.95979V3.32579" stroke="#A0ACBD" stroke-width="1.5" stroke-linecap="round" stroke-linejoin="round"/>
<path d="M1.27441 13.483L1.46341 15.992C1.59141 17.683 3.00041 18.99 4.69541 18.99H16.2944C17.9894 18.99 19.3984 17.683 19.5264 15.992L19.7154 13.483" stroke="#A0ACBD" stroke-width="1.5" stroke-linecap="round" stroke-linejoin="round"/>
</svg>
