<svg width="17" height="34" viewBox="0 0 17 34" fill="none" xmlns="http://www.w3.org/2000/svg">
<path d="M16.9933 8.33878C16.9933 6.0625 16.3508 4.22333 15.0968 2.7926C13.5204 0.982089 11.5068 0.0792236 8.99647 0.0792236C4.12147 0.0792236 0.619873 3.46617 0.619873 8.1047C0.619873 12.7432 4.06414 16.0131 8.85077 16.0131C11.0697 16.0131 12.8492 15.3706 15.0968 13.2401L15.092 25.6939C15.092 28.6795 12.6629 31.1087 9.6772 31.1087H8.60952C5.31812 31.1087 2.64057 28.4311 2.64057 25.1397V23.2002C2.64774 23.0569 2.67401 22.9901 2.80299 22.9901C3.35236 22.9948 4.11908 22.9901 4.66605 22.9901C4.73771 22.9901 4.80936 22.9829 4.93357 22.9757C3.65331 21.0744 2.35634 19.2066 1.09519 17.3436C0.980543 17.174 0.713026 17.2528 0.713026 17.4606C0.713026 18.8268 0.724968 21.9176 0.720191 23.377H0.736913V25.1421C0.736913 29.4821 4.26717 33.0123 8.60714 33.0123H9.67481C13.4463 33.0123 16.561 30.1437 16.9503 26.4725L16.9933 8.33639V8.33878ZM13.3149 12.3945C12.1469 13.7082 10.6875 14.3507 8.90809 14.3507C5.22975 14.3507 2.63341 11.5776 2.63341 8.19308C2.63341 4.80852 5.20108 1.74403 8.96542 1.74403C12.4383 1.74403 15.0944 4.80852 15.0944 7.93034C15.0944 9.62381 14.5116 11.1119 13.3149 12.3945Z" fill="white"/>
</svg>
