<svg width="22" height="25" viewBox="0 0 22 25" fill="none" xmlns="http://www.w3.org/2000/svg">
<path d="M17.9632 8.87421C20.1578 8.87421 21.9441 7.08794 21.9441 4.89331C21.9441 3.83062 21.5309 2.83003 20.7787 2.07779C20.0264 1.32555 19.0259 0.912415 17.9632 0.912415C15.7685 0.912415 13.9823 2.69868 13.9823 4.89331C13.9823 5.23958 14.042 5.57152 14.1256 5.89152L8.79779 9.25391C8.70227 9.13928 8.62108 9.01749 8.516 8.91003C7.62526 8.01928 6.43839 7.52734 5.17749 7.52734C2.57451 7.52734 0.456299 9.64555 0.456299 12.2485C0.456299 14.8515 2.57451 16.9673 5.17749 16.9673C6.34525 16.9673 7.39839 16.5255 8.22466 15.8235L11.4915 18.3548C11.322 18.6366 11.1739 18.9351 11.0784 19.2647C10.4551 21.3709 11.6635 23.5894 13.7673 24.2103C14.1423 24.3202 14.522 24.3751 14.9017 24.3751C15.556 24.3751 16.2056 24.2103 16.7978 23.8903C17.7315 23.3817 18.4121 22.5411 18.7154 21.5214C19.0163 20.5017 18.9041 19.4247 18.3954 18.4909C17.8891 17.5572 17.0462 16.8766 16.0264 16.5733C14.873 16.2318 13.6957 16.4539 12.7548 17.0581L9.34704 14.4169C9.68854 13.765 9.90108 13.0342 9.90108 12.2485C9.90108 11.759 9.80555 11.2885 9.66466 10.8348L14.9709 7.48435C15.7017 8.32734 16.7667 8.87421 17.9679 8.87421H17.9632ZM5.17749 15.1715C3.56555 15.1715 2.25451 13.8605 2.25451 12.2485C2.25451 10.6366 3.56555 9.32555 5.17749 9.32555C5.95839 9.32555 6.69152 9.62883 7.24555 10.1829C7.79958 10.7369 8.10048 11.47 8.10048 12.2509C8.10048 13.8629 6.78943 15.1739 5.17749 15.1739V15.1715ZM14.8969 18.2067C15.1023 18.2067 15.31 18.2354 15.5154 18.2975C16.0742 18.4623 16.5375 18.8372 16.8145 19.3506C17.0939 19.8641 17.156 20.4539 16.9888 21.0127C16.8241 21.5715 16.4491 22.0348 15.9381 22.3118C15.4247 22.5912 14.8348 22.6533 14.276 22.4861C13.7172 22.3214 13.2563 21.9464 12.9769 21.4354C12.6975 20.922 12.6354 20.3321 12.8002 19.7733C13.082 18.8229 13.9536 18.2067 14.8969 18.2067ZM17.9632 2.70824C18.5459 2.70824 19.0951 2.9351 19.5082 3.34823C19.9214 3.76137 20.1482 4.30823 20.1482 4.89331C20.1482 6.09689 19.1691 7.07838 17.9632 7.07838C16.7572 7.07838 15.7781 6.09928 15.7781 4.89331C15.7781 3.68734 16.7572 2.70824 17.9632 2.70824Z" fill="white"/>
</svg>
